<svg xmlns="http://www.w3.org/2000/svg" viewBox="0 0 1440 900" preserveAspectRatio="xMidYMid slice">
  <defs>
    <linearGradient id="fog" x2="0" y2="1"><stop stop-color="#fffaf1" stop-opacity="0"/><stop offset="1" stop-color="#f3eadc" stop-opacity=".75"/></linearGradient>
    <linearGradient id="ridge" x2="0" y2="1"><stop stop-color="#797a73" stop-opacity=".36"/><stop offset="1" stop-color="#908e81" stop-opacity=".03"/></linearGradient>
    <filter id="blur"><feGaussianBlur stdDeviation="13"/></filter>
  </defs>
  <rect width="1440" height="900" fill="#faf6ed"/>
  <g opacity=".28" fill="#a6a59d" filter="url(#blur)">
    <path d="M0 310 100 255 185 289 292 208 371 279 455 220 561 289 687 231 811 283 969 218 1119 286 1300 206 1440 260V450H0Z"/>
  </g>
  <path d="M0 401 93 350 179 378 298 277 383 335 465 282 566 368 720 305 883 349 1043 274 1162 344 1330 248 1440 322V480H0Z" fill="url(#ridge)"/>
  <path d="M0 390 93 350l40 13 42 15 123-101 47 28 38 30 82-53 54 48 47 38 154-63 79 20 84 24 160-75 65 29 54 41 168-96 55 38 55 36" fill="none" stroke="#6c6b64" opacity=".18" stroke-width="3"/>
  <path d="M0 410c340-45 420-15 689-32 300-32 542-23 751 21v96H0Z" fill="#faf6ed" opacity=".75" filter="url(#blur)"/>
  <path d="M0 704 140 661 228 686 381 597 487 659 640 607 777 689 931 598 1080 682 1215 590 1331 627 1440 565V900H0Z" fill="#696961" opacity=".12"/>
  <path d="M0 789 171 749 260 783 408 684 518 738 622 714 789 800 941 704 1072 762 1249 645 1373 696 1440 654V900H0Z" fill="#5b5e59" opacity=".19"/>
  <path d="M0 900V829c283-76 390 3 583-43 146-35 273-42 438 33 140 63 306 1 419-46v127Z" fill="url(#fog)"/>
  <circle cx="1131" cy="283" r="39" fill="#b9644d" opacity=".15"/>
  <g transform="translate(1190 731)" fill="#252726" opacity=".72"><path d="M-3-58c4-4 10-4 14 0l-1 9-12 1Zm-3 10 17-1 9 39-29 1Zm7 37 3 37h-5l-5-35Zm10 0 8 37h-5L6-9Z"/><path d="M-12-43 -35-50l-2 3 27 12 24 1 16-8-3-3-17 4Z"/><path d="m16-18 41 42 2-2-37-46Z"/></g>
  <path d="M0 0h1440v900H0z" fill="none" stroke="#956e4d" opacity=".06" stroke-width="20"/>
</svg>
